<svg width="15" height="15" viewBox="0 0 24 24" fill="none" xmlns="http://www.w3.org/2000/svg">
<g opacity="0.5">
<path fill-rule="evenodd" clip-rule="evenodd" d="M11.9999 4.9395L20.9999 13.9395V20.25C20.9999 20.8467 20.7629 21.419 20.3409 21.841C19.919 22.2629 19.3467 22.5 18.7499 22.5H5.24994C4.6532 22.5 4.08091 22.2629 3.65895 21.841C3.23699 21.419 2.99994 20.8467 2.99994 20.25V13.9395L11.9999 4.9395ZM19.4999 3.75V9L16.4999 6V3.75C16.4999 3.55109 16.579 3.36032 16.7196 3.21967C16.8603 3.07902 17.051 3 17.2499 3H18.7499C18.9489 3 19.1396 3.07902 19.2803 3.21967C19.4209 3.36032 19.4999 3.55109 19.4999 3.75Z" fill="#666666"/>
<path fill-rule="evenodd" clip-rule="evenodd" d="M10.9395 2.25C11.2208 1.96879 11.6022 1.81082 12 1.81082C12.3977 1.81082 12.7792 1.96879 13.0605 2.25L23.031 12.219C23.1718 12.3598 23.2509 12.5508 23.2509 12.75C23.2509 12.9492 23.1718 13.1402 23.031 13.281C22.8901 13.4218 22.6991 13.5009 22.5 13.5009C22.3008 13.5009 22.1098 13.4218 21.969 13.281L12 3.3105L2.03097 13.281C1.89014 13.4218 1.69913 13.5009 1.49997 13.5009C1.30081 13.5009 1.1098 13.4218 0.968971 13.281C0.828141 13.1402 0.749023 12.9492 0.749023 12.75C0.749023 12.5508 0.828141 12.3598 0.968971 12.219L10.9395 2.25Z" fill="#666666"/>
</g>
</svg>
