<svg width="200 " height="175" viewBox="0 0 243 175" fill="none" xmlns="http://www.w3.org/2000/svg">
<rect width="243" height="175" fill="#4285F4"/>
<g opacity="0.5" clip-path="url(#clip0)">
<path d="M236.25 85.5814L221.907 70.6107C221.506 70.1924 220.958 69.9729 220.388 70.0016C219.821 70.0304 219.287 70.3175 218.93 70.7707C218.914 70.7912 217.313 72.8049 214.846 74.7018C213.161 76.0102 209.796 78.2023 206.192 78.2023H206.14C204.61 78.2023 203.003 77.8293 201.357 77.091C198.943 76.0123 196.887 74.3388 195.588 73.1248C194.843 72.4316 194.286 71.8143 193.931 71.4185C193.734 71.197 193.395 70.7705 193.395 70.7664V70.7643C192.996 70.2783 192.427 69.9994 191.822 69.9994C191.216 69.9994 190.64 70.2783 190.261 70.7623L190.248 70.7705C190.232 70.791 188.63 72.8026 186.161 74.7016C184.476 76.0102 181.108 78.2023 177.504 78.2023H177.453C175.923 78.2023 174.313 77.8293 172.669 77.091C170.255 76.0123 168.199 74.3388 166.9 73.1248C166.155 72.4296 165.577 71.8143 165.223 71.4185C165.025 71.197 164.665 70.7643 164.665 70.7643C164.304 70.305 163.77 70.0261 163.199 70.0014C162.631 69.9748 162.069 70.2086 161.675 70.631L147.729 85.6017C147.343 86.016 147.148 86.5595 147.179 87.1337C147.209 87.7079 147.462 88.2267 147.891 88.5938C147.891 88.5938 147.893 88.5979 147.911 88.6123C148.032 88.7189 150.963 91.2824 153.809 95.3429C156.244 98.8006 159.144 104.149 159.129 109.989C159.138 112.116 158.417 114.915 157.043 118.084C155.831 120.895 154.096 124.074 151.887 127.53C149.727 130.901 148.588 134.798 148.59 138.795C148.588 140.786 148.871 142.767 149.427 144.684C149.98 146.6 150.799 148.417 151.861 150.084C154.078 153.574 157.254 156.257 161.041 157.84C165.037 159.509 168.902 160.892 172.526 161.948C179.62 164.013 185.816 168.258 190.442 174.228C190.822 174.718 191.39 174.999 192 174.999C192.609 174.999 193.177 174.718 193.558 174.228C198.184 168.258 204.379 164.013 211.474 161.948C215.097 160.892 218.96 159.509 222.959 157.84C226.746 156.257 229.921 153.574 232.139 150.084C233.198 148.417 234.019 146.6 234.573 144.684C235.129 142.767 235.41 140.786 235.41 138.795C235.412 134.798 234.272 130.901 232.115 127.53C230.232 124.587 228.688 121.837 227.529 119.353C226.222 116.57 225.361 114.001 225.034 111.927C224.959 111.443 224.716 111.005 224.353 110.689C223.911 110.307 223.319 110.137 222.747 110.233C221.664 110.414 220.927 111.47 221.102 112.588C221.504 115.112 222.433 117.907 223.939 121.133C225.176 123.779 226.807 126.691 228.786 129.784C230.511 132.484 231.423 135.6 231.425 138.795C231.419 145.529 227.507 151.514 221.46 154.038C217.596 155.654 213.87 156.987 210.388 158C203.312 160.061 196.953 164.134 192 169.782C187.045 164.134 180.688 160.061 173.612 158C170.13 156.987 166.404 155.654 162.539 154.038C156.493 151.514 152.58 145.529 152.574 138.795C152.576 135.602 153.489 132.484 155.214 129.784C157.543 126.139 159.384 122.764 160.685 119.747C161.464 117.93 162.038 116.304 162.436 114.772C162.888 113.045 163.109 111.48 163.113 109.989C163.099 104.282 160.958 98.4066 156.746 92.527C154.961 90.0476 153.186 88.1178 152.011 86.9325L163.083 75.0441C164.034 76.0264 165.05 76.9452 166.102 77.7778C167.739 79.0698 169.413 80.1034 171.078 80.8519C173.23 81.8137 175.375 82.3039 177.457 82.3039C179.539 82.3039 181.684 81.8137 183.836 80.8519C186.165 79.804 188.472 78.2269 190.689 76.1659C191.068 75.8111 191.442 75.444 191.801 75.0749C192.743 76.0449 193.747 76.9532 194.789 77.7776C196.427 79.0696 198.1 80.1032 199.768 80.8517C201.917 81.8135 204.063 82.3037 206.145 82.3037C208.226 82.3037 210.372 81.8135 212.524 80.8517C214.854 79.8038 217.159 78.2267 219.377 76.1657C219.773 75.7945 220.164 75.411 220.538 75.0234L231.969 86.9526C230.535 88.3963 228.405 90.7547 226.377 93.794C225.756 94.7271 225.987 96.0047 226.893 96.6446C227.226 96.8804 227.614 97.0055 228.017 97.0055C228.676 97.0055 229.29 96.6712 229.662 96.1134C231.256 93.7222 232.939 91.7904 234.069 90.5927C234.707 89.9201 235.236 89.4033 235.569 89.0875C235.752 88.9152 236.109 88.5932 236.109 88.5932C236.535 88.2282 236.794 87.6888 236.822 87.1187C236.848 86.5494 236.641 85.9875 236.25 85.5814Z" fill="white"/>
<path d="M209.635 114.344C209.401 113.598 208.775 113.054 208.021 112.943L198.04 111.471L193.582 102.305C193.244 101.611 192.555 101.172 191.801 101.172C191.046 101.172 190.357 101.611 190.019 102.305L185.561 111.471L175.581 112.943C174.827 113.054 174.2 113.598 173.967 114.344C173.733 115.091 173.934 115.909 174.483 116.452L181.688 123.578L179.988 133.633C179.858 134.401 180.162 135.178 180.773 135.639C181.384 136.099 182.195 136.164 182.867 135.805L191.801 131.04L200.734 135.805C201.023 135.959 201.337 136.036 201.65 136.036C202.066 136.036 202.48 135.902 202.828 135.639C203.439 135.178 203.743 134.401 203.613 133.633L201.914 123.578L209.119 116.452C209.668 115.909 209.868 115.091 209.635 114.344ZM198.389 121.376C197.912 121.849 197.693 122.535 197.807 123.207L198.999 130.261L192.717 126.909C192.43 126.756 192.115 126.679 191.801 126.679C191.486 126.679 191.171 126.756 190.884 126.909L184.602 130.261L185.795 123.207C185.908 122.535 185.69 121.849 185.212 121.376L180.188 116.407L187.158 115.379C187.805 115.284 188.365 114.869 188.657 114.268L191.801 107.804L194.944 114.267C195.237 114.868 195.797 115.284 196.443 115.379L203.413 116.407L198.389 121.376Z" fill="white"/>
<path d="M162.102 135.729C161.459 135.952 160.97 136.497 160.806 137.174L158.813 145.378C158.607 146.226 158.947 147.115 159.658 147.593C159.757 147.66 162.126 149.239 165.994 150.934C166.243 151.044 166.509 151.098 166.774 151.098C167.079 151.098 167.383 151.027 167.662 150.884C168.184 150.617 168.566 150.127 168.707 149.545L169.054 148.117C172.983 150.281 181.629 154.287 191.801 154.287C201.972 154.287 210.619 150.281 214.548 148.117L214.894 149.545C215.036 150.127 215.418 150.617 215.94 150.884C216.219 151.027 216.523 151.098 216.827 151.098C217.093 151.098 217.358 151.044 217.608 150.934C221.475 149.239 223.844 147.66 223.943 147.593C224.655 147.115 224.994 146.226 224.788 145.378L222.796 137.174C222.632 136.498 222.143 135.956 221.502 135.731C220.861 135.507 220.152 135.635 219.621 136.069C219.606 136.081 218.352 137.097 216.126 138.327L215.648 136.358C215.483 135.682 214.995 135.14 214.354 134.915C213.713 134.691 213.004 134.819 212.473 135.252C212.391 135.319 204.092 141.983 191.801 141.983C179.509 141.983 171.211 135.319 171.132 135.255C170.602 134.818 169.893 134.689 169.25 134.913C168.607 135.136 168.118 135.681 167.954 136.358L167.476 138.327C165.249 137.097 163.997 136.082 163.983 136.071C163.454 135.635 162.745 135.505 162.102 135.729ZM219.618 141.001L220.563 144.89C219.966 145.234 219.161 145.676 218.181 146.164L217.254 142.349C218.162 141.873 218.953 141.414 219.618 141.001ZM191.801 146.084C201.495 146.084 208.847 142.445 212.471 140.19L213.413 144.07C210.338 145.836 201.751 150.186 191.801 150.186C181.851 150.186 173.263 145.836 170.188 144.071L171.13 140.191C174.754 142.445 182.107 146.084 191.801 146.084ZM165.421 146.164C164.441 145.676 163.636 145.234 163.039 144.89L163.983 141.001C164.649 141.414 165.44 141.873 166.348 142.349L165.421 146.164Z" fill="white"/>
<path d="M213.715 104.248C213.929 104.248 214.144 104.213 214.352 104.141C214.995 103.917 215.483 103.373 215.648 102.695L217.64 94.4919C217.846 93.6433 217.507 92.7536 216.795 92.2762C216.337 91.9696 205.439 84.766 191.801 84.766C178.163 84.766 167.264 91.9696 166.807 92.2762C166.095 92.7536 165.756 93.6435 165.962 94.4919L167.954 102.695C168.118 103.371 168.607 103.914 169.248 104.138C169.889 104.362 170.598 104.235 171.128 103.801C171.211 103.734 179.509 97.0707 191.801 97.0707C204.092 97.0707 212.391 103.734 212.47 103.799C212.828 104.094 213.269 104.248 213.715 104.248ZM171.13 98.8631L170.188 94.983C173.263 93.2173 181.851 88.8676 191.801 88.8676C201.751 88.8676 210.338 93.2173 213.413 94.9828L212.471 98.8629C208.847 96.6089 201.495 92.9692 191.801 92.9692C182.107 92.9692 174.754 96.6089 171.13 98.8631Z" fill="white"/>
<path d="M223.781 105.216C224.881 105.216 225.773 104.298 225.773 103.165C225.773 102.033 224.881 101.115 223.781 101.115C222.681 101.115 221.789 102.033 221.789 103.165C221.789 104.298 222.681 105.216 223.781 105.216Z" fill="white"/>
</g>
<path opacity="0.5" d="M32.168 30.192C31.032 30.192 30.04 30.08 29.192 29.856C28.344 29.632 27.68 29.344 27.2 28.992C26.752 28.688 26.528 28.384 26.528 28.08C26.528 27.84 26.616 27.552 26.792 27.216C26.968 26.88 27.176 26.584 27.416 26.328C27.656 26.072 27.856 25.944 28.016 25.944C28.112 25.944 28.336 26.04 28.688 26.232C29.2 26.488 29.664 26.688 30.08 26.832C30.496 26.976 30.984 27.048 31.544 27.048C32.168 27.048 32.696 26.928 33.128 26.688C33.576 26.432 33.8 25.992 33.8 25.368C33.8 24.856 33.592 24.456 33.176 24.168C32.776 23.864 32.12 23.528 31.208 23.16L30.104 22.68C29.096 22.2 28.304 21.608 27.728 20.904C27.152 20.184 26.864 19.168 26.864 17.856C26.864 16.768 27.128 15.864 27.656 15.144C28.2 14.408 28.904 13.872 29.768 13.536C30.632 13.184 31.56 13.008 32.552 13.008C33.368 13.008 34.104 13.096 34.76 13.272C35.432 13.432 35.96 13.648 36.344 13.92C36.696 14.176 36.872 14.432 36.872 14.688C36.872 14.912 36.8 15.192 36.656 15.528C36.512 15.864 36.336 16.16 36.128 16.416C35.92 16.656 35.728 16.776 35.552 16.776C35.472 16.776 35.336 16.736 35.144 16.656C34.968 16.576 34.816 16.512 34.688 16.464C34.112 16.272 33.512 16.176 32.888 16.176C32.056 16.176 31.472 16.312 31.136 16.584C30.816 16.856 30.656 17.168 30.656 17.52C30.656 17.936 30.768 18.28 30.992 18.552C31.216 18.824 31.488 19.048 31.808 19.224C32.128 19.384 32.6 19.6 33.224 19.872C34.136 20.256 34.88 20.624 35.456 20.976C36.032 21.312 36.528 21.808 36.944 22.464C37.376 23.104 37.592 23.928 37.592 24.936C37.592 26.168 37.328 27.176 36.8 27.96C36.288 28.744 35.624 29.312 34.808 29.664C33.992 30.016 33.112 30.192 32.168 30.192ZM40.856 30.048C39.896 30.048 39.416 29.792 39.416 29.28V18.168C39.416 17.656 39.896 17.4 40.856 17.4H41.528C42.488 17.4 42.968 17.656 42.968 18.168V29.28C42.968 29.792 42.488 30.048 41.528 30.048H40.856ZM41.192 16.224C40.008 16.224 39.416 15.968 39.416 15.456V13.584C39.416 13.072 40.008 12.816 41.192 12.816C42.376 12.816 42.968 13.072 42.968 13.584V15.456C42.968 15.968 42.376 16.224 41.192 16.224ZM50.6396 35.088C46.8316 35.088 44.9276 33.984 44.9276 31.776C44.9276 31.152 45.1116 30.6 45.4796 30.12C45.8636 29.64 46.4076 29.264 47.1116 28.992L47.1356 28.896C46.7996 28.736 46.5436 28.496 46.3676 28.176C46.1916 27.856 46.1036 27.496 46.1036 27.096C46.1036 26.216 46.5836 25.496 47.5436 24.936C46.2476 24.248 45.5996 23.112 45.5996 21.528C45.5996 20.072 46.0716 19 47.0156 18.312C47.9756 17.608 49.2236 17.256 50.7596 17.256C51.3836 17.256 51.9996 17.32 52.6076 17.448H56.4716C56.7276 17.448 56.9116 17.544 57.0236 17.736C57.1356 17.928 57.1916 18.232 57.1916 18.648V19.056C57.1916 19.808 56.9996 20.184 56.6156 20.184C56.4556 20.184 56.2476 20.16 55.9916 20.112C55.7516 20.064 55.5756 20.016 55.4636 19.968L55.4156 20.064C55.5596 20.224 55.6796 20.448 55.7756 20.736C55.8716 21.008 55.9196 21.272 55.9196 21.528C55.9196 22.904 55.4636 23.928 54.5516 24.6C53.6556 25.272 52.4796 25.608 51.0236 25.608C50.3196 25.608 49.8636 25.672 49.6556 25.8C49.4476 25.912 49.3436 26.104 49.3436 26.376C49.3436 26.664 49.5276 26.864 49.8956 26.976C50.2636 27.088 50.8876 27.208 51.7676 27.336C52.0556 27.368 52.5036 27.432 53.1116 27.528C54.2476 27.752 55.1516 28.12 55.8236 28.632C56.4956 29.128 56.8316 29.92 56.8316 31.008C56.8316 31.824 56.5756 32.536 56.0636 33.144C55.5516 33.768 54.8236 34.248 53.8796 34.584C52.9516 34.92 51.8716 35.088 50.6396 35.088ZM50.7596 23.04C51.2876 23.04 51.7196 22.912 52.0556 22.656C52.3916 22.384 52.5596 21.976 52.5596 21.432C52.5596 20.904 52.3916 20.504 52.0556 20.232C51.7196 19.96 51.2876 19.824 50.7596 19.824C50.2316 19.824 49.7996 19.96 49.4636 20.232C49.1276 20.504 48.9596 20.904 48.9596 21.432C48.9596 21.976 49.1276 22.384 49.4636 22.656C49.7996 22.912 50.2316 23.04 50.7596 23.04ZM50.9036 32.28C51.7196 32.28 52.3356 32.176 52.7516 31.968C53.1676 31.76 53.3756 31.472 53.3756 31.104C53.3756 30.736 53.1036 30.464 52.5596 30.288C52.0316 30.128 51.0716 30 49.6796 29.904C49.2796 30.048 48.9596 30.232 48.7196 30.456C48.4956 30.696 48.3836 30.944 48.3836 31.2C48.3836 31.536 48.5836 31.8 48.9836 31.992C49.3996 32.184 50.0396 32.28 50.9036 32.28ZM60.3811 30.048C59.4211 30.048 58.9411 29.792 58.9411 29.28V21.672C58.9411 20.968 58.9171 20.432 58.8691 20.064C58.8371 19.68 58.7891 19.256 58.7251 18.792C58.6771 18.568 58.6531 18.4 58.6531 18.288C58.6531 18.032 58.9731 17.84 59.6131 17.712C60.2691 17.584 60.8451 17.52 61.3411 17.52C61.6291 17.52 61.8291 17.632 61.9411 17.856C62.0531 18.064 62.1331 18.296 62.1811 18.552C62.2451 18.808 62.2851 18.984 62.3011 19.08C62.6851 18.568 63.1971 18.136 63.8371 17.784C64.4771 17.432 65.1571 17.256 65.8771 17.256C67.0771 17.256 67.9651 17.576 68.5411 18.216C69.1171 18.84 69.4051 19.816 69.4051 21.144V29.28C69.4051 29.792 68.9251 30.048 67.9651 30.048H67.2931C66.3331 30.048 65.8531 29.792 65.8531 29.28V21.672C65.8531 21.176 65.7411 20.808 65.5171 20.568C65.2931 20.312 64.9251 20.184 64.4131 20.184C63.9811 20.184 63.5971 20.328 63.2611 20.616C62.9411 20.888 62.6851 21.208 62.4931 21.576V29.28C62.4931 29.792 62.0131 30.048 61.0531 30.048H60.3811ZM75.3725 30.192C74.1405 30.192 73.2365 29.872 72.6605 29.232C72.1005 28.592 71.8205 27.744 71.8205 26.688C71.8205 25.408 72.2845 24.344 73.2125 23.496C74.1565 22.648 75.9885 22.224 78.7085 22.224V21.432C78.7085 20.968 78.5565 20.624 78.2525 20.4C77.9645 20.176 77.4925 20.064 76.8365 20.064C76.2925 20.064 75.8125 20.12 75.3965 20.232C74.9965 20.344 74.6365 20.472 74.3165 20.616C73.9965 20.76 73.8125 20.832 73.7645 20.832C73.6045 20.832 73.4285 20.712 73.2365 20.472C73.0445 20.232 72.8765 19.96 72.7325 19.656C72.5885 19.336 72.5165 19.088 72.5165 18.912C72.5165 18.64 72.7165 18.376 73.1165 18.12C73.5165 17.864 74.0685 17.656 74.7725 17.496C75.4765 17.336 76.2525 17.256 77.1005 17.256C78.9085 17.256 80.2205 17.616 81.0365 18.336C81.8525 19.04 82.2605 20.016 82.2605 21.264V25.776C82.2605 26.512 82.2765 27.072 82.3085 27.456C82.3565 27.84 82.4125 28.264 82.4765 28.728C82.5245 28.936 82.5485 29.112 82.5485 29.256C82.5485 29.512 82.2205 29.704 81.5645 29.832C80.9245 29.96 80.3565 30.024 79.8605 30.024C79.5725 30.024 79.3725 29.912 79.2605 29.688C79.1485 29.448 79.0605 29.192 78.9965 28.92C78.9485 28.648 78.9165 28.464 78.9005 28.368C78.8045 28.544 78.6125 28.776 78.3245 29.064C78.0365 29.336 77.6365 29.592 77.1245 29.832C76.6125 30.072 76.0285 30.192 75.3725 30.192ZM76.5485 27.384C76.9965 27.384 77.4205 27.24 77.8205 26.952C78.2205 26.664 78.5165 26.304 78.7085 25.872V24.552C76.4685 24.552 75.3485 25.144 75.3485 26.328C75.3485 26.648 75.4525 26.904 75.6605 27.096C75.8685 27.288 76.1645 27.384 76.5485 27.384ZM88.9066 30.192C86.5706 30.192 85.4026 28.896 85.4026 26.304V12.672C85.4026 12.16 85.8826 11.904 86.8426 11.904H87.5146C88.4746 11.904 88.9546 12.16 88.9546 12.672V26.352C88.9546 26.72 89.0186 26.984 89.1466 27.144C89.2906 27.304 89.5146 27.384 89.8186 27.384C89.8986 27.384 90.0026 27.368 90.1306 27.336C90.2746 27.304 90.3866 27.288 90.4666 27.288C90.6106 27.288 90.7386 27.408 90.8506 27.648C90.9626 27.888 91.0506 28.152 91.1146 28.44C91.1786 28.728 91.2106 28.92 91.2106 29.016C91.2106 29.8 90.4426 30.192 88.9066 30.192ZM95.6716 30.192C94.6796 30.192 93.7676 30.04 92.9356 29.736C92.1036 29.432 91.6876 29.04 91.6876 28.56C91.6876 28.24 91.8396 27.856 92.1436 27.408C92.4476 26.944 92.7196 26.712 92.9596 26.712C93.0876 26.712 93.2636 26.776 93.4876 26.904C93.8236 27.048 94.1276 27.168 94.3996 27.264C94.6876 27.344 95.0156 27.384 95.3836 27.384C95.8636 27.384 96.2236 27.296 96.4636 27.12C96.7196 26.944 96.8476 26.696 96.8476 26.376C96.8476 26.056 96.7116 25.808 96.4396 25.632C96.1676 25.456 95.6556 25.208 94.9036 24.888C94.3436 24.648 93.8636 24.408 93.4636 24.168C93.0636 23.912 92.7116 23.544 92.4076 23.064C92.1196 22.568 91.9756 21.944 91.9756 21.192C91.9756 19.96 92.3676 19 93.1516 18.312C93.9356 17.608 94.9996 17.256 96.3436 17.256C97.1916 17.256 97.9996 17.376 98.7676 17.616C99.5516 17.856 99.9436 18.2 99.9436 18.648C99.9436 18.952 99.8236 19.344 99.5836 19.824C99.3436 20.304 99.1196 20.544 98.9116 20.544C98.8476 20.544 98.6076 20.464 98.1916 20.304C97.7756 20.128 97.3036 20.04 96.7756 20.04C95.9276 20.04 95.5036 20.336 95.5036 20.928C95.5036 21.28 95.6476 21.552 95.9356 21.744C96.2236 21.92 96.7436 22.144 97.4956 22.416C98.3276 22.72 99.0156 23.144 99.5596 23.688C100.104 24.216 100.376 25.016 100.376 26.088C100.376 27.336 99.9596 28.336 99.1276 29.088C98.2956 29.824 97.1436 30.192 95.6716 30.192Z" fill="white"/>
<path d="M29.3 54.024C28.98 54.024 28.82 53.936 28.82 53.76V49.692L26.312 45.996C26.248 45.908 26.216 45.836 26.216 45.78C26.216 45.644 26.4 45.576 26.768 45.576H26.9C27.036 45.576 27.144 45.588 27.224 45.612C27.304 45.636 27.368 45.684 27.416 45.756L29.384 48.708L31.4 45.744C31.472 45.632 31.652 45.576 31.94 45.576H32.024C32.192 45.584 32.312 45.604 32.384 45.636C32.456 45.668 32.492 45.716 32.492 45.78C32.492 45.836 32.46 45.908 32.396 45.996L29.876 49.728V53.76C29.876 53.936 29.716 54.024 29.396 54.024H29.3ZM35.1862 54.072C34.2822 54.072 33.5902 53.8 33.1102 53.256C32.6382 52.712 32.4022 51.924 32.4022 50.892C32.4022 49.852 32.6422 49.052 33.1222 48.492C33.6022 47.932 34.2902 47.652 35.1862 47.652C36.0662 47.652 36.7382 47.932 37.2022 48.492C37.6742 49.044 37.9102 49.844 37.9102 50.892C37.9102 51.932 37.6782 52.724 37.2142 53.268C36.7582 53.804 36.0822 54.072 35.1862 54.072ZM35.1502 53.208C35.7342 53.208 36.1662 53.02 36.4462 52.644C36.7262 52.26 36.8662 51.668 36.8662 50.868C36.8662 50.068 36.7262 49.476 36.4462 49.092C36.1662 48.708 35.7342 48.516 35.1502 48.516C34.5662 48.516 34.1382 48.708 33.8662 49.092C33.5942 49.468 33.4582 50.06 33.4582 50.868C33.4582 51.668 33.5942 52.26 33.8662 52.644C34.1382 53.02 34.5662 53.208 35.1502 53.208ZM41.4302 54.072C40.8222 54.072 40.3422 53.9 39.9902 53.556C39.6462 53.212 39.4742 52.736 39.4742 52.128V47.964C39.4742 47.788 39.6342 47.7 39.9542 47.7H40.0022C40.3222 47.7 40.4822 47.788 40.4822 47.964V52.032C40.4822 52.4 40.5862 52.688 40.7942 52.896C41.0102 53.096 41.3142 53.196 41.7062 53.196C41.9782 53.196 42.2462 53.12 42.5102 52.968C42.7822 52.816 43.0182 52.612 43.2182 52.356V47.964C43.2182 47.788 43.3782 47.7 43.6982 47.7H43.7462C44.0662 47.7 44.2262 47.788 44.2262 47.964V52.224C44.2262 52.752 44.2502 53.132 44.2982 53.364C44.3462 53.588 44.3702 53.712 44.3702 53.736C44.3702 53.832 44.2942 53.904 44.1422 53.952C43.9902 53.992 43.8502 54.012 43.7222 54.012C43.6102 54.012 43.5262 53.952 43.4702 53.832C43.4222 53.704 43.3822 53.572 43.3502 53.436C43.3262 53.3 43.3102 53.212 43.3022 53.172C43.0462 53.452 42.7542 53.672 42.4262 53.832C42.0982 53.992 41.7662 54.072 41.4302 54.072ZM46.8139 54.024C46.4939 54.024 46.3339 53.936 46.3339 53.76V49.548C46.3339 49.02 46.3099 48.644 46.2619 48.42C46.2139 48.188 46.1899 48.06 46.1899 48.036C46.1899 47.94 46.2659 47.872 46.4179 47.832C46.5699 47.784 46.7099 47.76 46.8379 47.76C46.9499 47.76 47.0299 47.82 47.0779 47.94C47.1339 48.052 47.1739 48.172 47.1979 48.3C47.2299 48.428 47.2499 48.512 47.2579 48.552C47.6819 47.952 48.1459 47.652 48.6499 47.652C48.8819 47.652 49.0539 47.692 49.1659 47.772C49.2859 47.844 49.3459 47.96 49.3459 48.12C49.3459 48.256 49.3219 48.4 49.2739 48.552C49.2259 48.696 49.1699 48.768 49.1059 48.768C49.0659 48.768 48.9859 48.748 48.8659 48.708C48.7539 48.66 48.6139 48.636 48.4459 48.636C48.2379 48.636 48.0379 48.708 47.8459 48.852C47.6539 48.988 47.4859 49.16 47.3419 49.368V53.76C47.3419 53.936 47.1819 54.024 46.8619 54.024H46.8139ZM54.9073 54.108C54.5633 54.108 54.2433 54.068 53.9473 53.988C53.6593 53.9 53.4273 53.796 53.2513 53.676C53.0833 53.556 52.9993 53.448 52.9993 53.352C52.9993 53.272 53.0473 53.152 53.1433 52.992C53.2473 52.832 53.3393 52.752 53.4193 52.752C53.4353 52.752 53.5113 52.796 53.6473 52.884C53.7833 52.972 53.9513 53.052 54.1513 53.124C54.3593 53.196 54.5873 53.232 54.8353 53.232C55.2193 53.232 55.5113 53.156 55.7113 53.004C55.9113 52.852 56.0113 52.632 56.0113 52.344C56.0113 52.056 55.9113 51.836 55.7113 51.684C55.5193 51.532 55.2193 51.388 54.8113 51.252C54.4673 51.14 54.1793 51.02 53.9473 50.892C53.7153 50.756 53.5233 50.568 53.3713 50.328C53.2193 50.08 53.1433 49.764 53.1433 49.38C53.1433 49.044 53.2273 48.744 53.3953 48.48C53.5713 48.216 53.8073 48.012 54.1033 47.868C54.4073 47.716 54.7513 47.64 55.1353 47.64C55.5433 47.64 55.9073 47.692 56.2273 47.796C56.5553 47.9 56.7193 48.02 56.7193 48.156C56.7193 48.26 56.6713 48.396 56.5753 48.564C56.4873 48.724 56.4073 48.804 56.3353 48.804C56.3113 48.796 56.2033 48.744 56.0113 48.648C55.8273 48.544 55.5713 48.492 55.2433 48.492C54.9313 48.492 54.6753 48.564 54.4753 48.708C54.2753 48.852 54.1753 49.048 54.1753 49.296C54.1753 49.528 54.2393 49.708 54.3673 49.836C54.5033 49.964 54.7513 50.088 55.1113 50.208C55.7353 50.416 56.2113 50.668 56.5393 50.964C56.8673 51.26 57.0313 51.684 57.0313 52.236C57.0313 52.588 56.9353 52.908 56.7433 53.196C56.5593 53.476 56.3033 53.7 55.9753 53.868C55.6553 54.028 55.2993 54.108 54.9073 54.108ZM60.1283 54.072C59.5123 54.072 59.0163 53.92 58.6403 53.616C58.2643 53.312 58.0763 52.864 58.0763 52.272C58.0763 51.64 58.2643 51.168 58.6403 50.856C59.0243 50.536 59.4923 50.332 60.0443 50.244C60.5963 50.148 61.2683 50.096 62.0603 50.088V49.524C62.0603 49.228 61.9563 48.988 61.7483 48.804C61.5403 48.612 61.2043 48.516 60.7403 48.516C60.3883 48.516 60.0803 48.56 59.8163 48.648C59.5523 48.728 59.3323 48.812 59.1563 48.9C58.9803 48.98 58.8843 49.02 58.8683 49.02C58.7883 49.02 58.6963 48.94 58.5923 48.78C58.4963 48.62 58.4483 48.5 58.4483 48.42C58.4483 48.316 58.5523 48.204 58.7603 48.084C58.9763 47.964 59.2603 47.864 59.6123 47.784C59.9643 47.696 60.3283 47.652 60.7043 47.652C61.4483 47.652 62.0283 47.82 62.4443 48.156C62.8603 48.484 63.0683 48.944 63.0683 49.536V52.224C63.0683 52.752 63.0923 53.132 63.1403 53.364C63.1883 53.588 63.2123 53.712 63.2123 53.736C63.2123 53.832 63.1363 53.904 62.9843 53.952C62.8323 53.992 62.6923 54.012 62.5643 54.012C62.4523 54.012 62.3683 53.952 62.3123 53.832C62.2643 53.704 62.2243 53.572 62.1923 53.436C62.1683 53.3 62.1523 53.212 62.1443 53.172C61.6003 53.772 60.9283 54.072 60.1283 54.072ZM60.1763 53.196C60.5683 53.196 60.9043 53.124 61.1843 52.98C61.4723 52.836 61.7643 52.632 62.0603 52.368V50.952C61.4603 50.96 60.9683 50.984 60.5843 51.024C60.2083 51.064 59.8763 51.176 59.5883 51.36C59.3003 51.544 59.1563 51.828 59.1563 52.212C59.1563 52.532 59.2403 52.776 59.4083 52.944C59.5843 53.112 59.8403 53.196 60.1763 53.196ZM65.8033 54.024C65.4833 54.024 65.3233 53.936 65.3233 53.76V48.588H64.8433C64.7633 48.588 64.7033 48.56 64.6633 48.504C64.6233 48.448 64.6033 48.356 64.6033 48.228V48.084C64.6033 47.956 64.6233 47.864 64.6633 47.808C64.7033 47.752 64.7633 47.724 64.8433 47.724H65.3233V46.584C65.3233 45.952 65.4793 45.52 65.7913 45.288C66.1033 45.048 66.4633 44.928 66.8713 44.928C67.4553 44.928 67.7473 45.048 67.7473 45.288C67.7473 45.368 67.7233 45.484 67.6753 45.636C67.6273 45.78 67.5673 45.852 67.4953 45.852C67.4553 45.852 67.3953 45.844 67.3153 45.828C67.2433 45.804 67.1313 45.792 66.9793 45.792C66.7713 45.792 66.6113 45.852 66.4993 45.972C66.3873 46.084 66.3313 46.32 66.3313 46.68V47.724H67.3753C67.4633 47.724 67.5233 47.752 67.5553 47.808C67.5953 47.864 67.6153 47.956 67.6153 48.084V48.228C67.6153 48.356 67.5953 48.448 67.5553 48.504C67.5233 48.56 67.4633 48.588 67.3753 48.588H66.3313V53.76C66.3313 53.936 66.1713 54.024 65.8513 54.024H65.8033ZM71.5297 54.072C70.5297 54.072 69.7897 53.812 69.3097 53.292C68.8297 52.772 68.5897 51.976 68.5897 50.904C68.5897 49.84 68.8257 49.032 69.2977 48.48C69.7697 47.928 70.4657 47.652 71.3857 47.652C72.2017 47.652 72.8177 47.92 73.2337 48.456C73.6497 48.984 73.8577 49.76 73.8577 50.784C73.8577 50.856 73.8097 50.956 73.7137 51.084C73.6177 51.212 73.5337 51.276 73.4617 51.276H69.6697C69.7177 51.94 69.8897 52.428 70.1857 52.74C70.4817 53.052 70.9257 53.208 71.5177 53.208C71.8537 53.208 72.1417 53.168 72.3817 53.088C72.6297 53 72.8337 52.916 72.9937 52.836C73.1537 52.748 73.2457 52.704 73.2697 52.704C73.3497 52.704 73.4377 52.784 73.5337 52.944C73.6377 53.104 73.6897 53.224 73.6897 53.304C73.6897 53.4 73.5897 53.512 73.3897 53.64C73.1897 53.76 72.9217 53.864 72.5857 53.952C72.2577 54.032 71.9057 54.072 71.5297 54.072ZM72.7897 50.412C72.7897 49.148 72.3097 48.516 71.3497 48.516C70.3177 48.516 69.7577 49.148 69.6697 50.412H72.7897ZM77.2304 54.072C76.8304 54.072 76.4704 53.952 76.1504 53.712C75.8384 53.464 75.6824 53.032 75.6824 52.416V48.588H75.0824C75.0024 48.588 74.9424 48.56 74.9024 48.504C74.8624 48.448 74.8424 48.356 74.8424 48.228V48.084C74.8424 47.956 74.8624 47.864 74.9024 47.808C74.9424 47.752 75.0024 47.724 75.0824 47.724H75.6824L75.8264 46.464C75.8504 46.288 75.9784 46.2 76.2104 46.2H76.3304C76.5704 46.2 76.6904 46.288 76.6904 46.464V47.724H77.6984C77.7864 47.724 77.8464 47.752 77.8784 47.808C77.9184 47.864 77.9384 47.956 77.9384 48.084V48.228C77.9384 48.356 77.9184 48.448 77.8784 48.504C77.8464 48.56 77.7864 48.588 77.6984 48.588H76.6904V52.32C76.6904 52.656 76.7464 52.888 76.8584 53.016C76.9784 53.144 77.1384 53.208 77.3384 53.208C77.4904 53.208 77.6024 53.2 77.6744 53.184C77.7544 53.16 77.8144 53.148 77.8544 53.148C77.9264 53.148 77.9864 53.224 78.0344 53.376C78.0824 53.52 78.1064 53.632 78.1064 53.712C78.1064 53.952 77.8144 54.072 77.2304 54.072ZM83.564 47.7C83.884 47.7 84.044 47.768 84.044 47.904C84.044 47.944 84.032 48 84.008 48.072L80.924 56.244C80.86 56.412 80.672 56.496 80.36 56.496H80.18C79.916 56.496 79.784 56.432 79.784 56.304C79.784 56.272 79.804 56.204 79.844 56.1L80.852 53.652L78.752 48.06C78.728 47.988 78.716 47.936 78.716 47.904C78.716 47.768 78.888 47.7 79.232 47.7H79.328C79.608 47.7 79.768 47.764 79.808 47.892L81.032 51.144C81.16 51.496 81.288 51.9 81.416 52.356H81.44C81.456 52.3 81.472 52.248 81.488 52.2C81.504 52.144 81.52 52.092 81.536 52.044L81.836 51.144L83.036 47.892C83.076 47.764 83.24 47.7 83.528 47.7H83.564ZM88.7322 54.024C88.4122 54.024 88.2522 53.936 88.2522 53.76V47.964C88.2522 47.788 88.4122 47.7 88.7322 47.7H88.7802C89.1002 47.7 89.2602 47.788 89.2602 47.964V53.76C89.2602 53.936 89.1002 54.024 88.7802 54.024H88.7322ZM88.7562 46.86C88.4042 46.86 88.2282 46.772 88.2282 46.596V45.876C88.2282 45.7 88.4042 45.612 88.7562 45.612C89.1082 45.612 89.2842 45.7 89.2842 45.876V46.596C89.2842 46.772 89.1082 46.86 88.7562 46.86ZM92.7119 54.108C92.3679 54.108 92.0479 54.068 91.7519 53.988C91.4639 53.9 91.2319 53.796 91.0559 53.676C90.8879 53.556 90.8039 53.448 90.8039 53.352C90.8039 53.272 90.8519 53.152 90.9479 52.992C91.0519 52.832 91.1439 52.752 91.2239 52.752C91.2399 52.752 91.3159 52.796 91.4519 52.884C91.5879 52.972 91.7559 53.052 91.9559 53.124C92.1639 53.196 92.3919 53.232 92.6399 53.232C93.0239 53.232 93.3159 53.156 93.5159 53.004C93.7159 52.852 93.8159 52.632 93.8159 52.344C93.8159 52.056 93.7159 51.836 93.5159 51.684C93.3239 51.532 93.0239 51.388 92.6159 51.252C92.2719 51.14 91.9839 51.02 91.7519 50.892C91.5199 50.756 91.3279 50.568 91.1759 50.328C91.0239 50.08 90.9479 49.764 90.9479 49.38C90.9479 49.044 91.0319 48.744 91.1999 48.48C91.3759 48.216 91.6119 48.012 91.9079 47.868C92.2119 47.716 92.5559 47.64 92.9399 47.64C93.3479 47.64 93.7119 47.692 94.0319 47.796C94.3599 47.9 94.5239 48.02 94.5239 48.156C94.5239 48.26 94.4759 48.396 94.3799 48.564C94.2919 48.724 94.2119 48.804 94.1399 48.804C94.1159 48.796 94.0079 48.744 93.8159 48.648C93.6319 48.544 93.3759 48.492 93.0479 48.492C92.7359 48.492 92.4799 48.564 92.2799 48.708C92.0799 48.852 91.9799 49.048 91.9799 49.296C91.9799 49.528 92.0439 49.708 92.1719 49.836C92.3079 49.964 92.5559 50.088 92.9159 50.208C93.5399 50.416 94.0159 50.668 94.3439 50.964C94.6719 51.26 94.8359 51.684 94.8359 52.236C94.8359 52.588 94.7399 52.908 94.5479 53.196C94.3639 53.476 94.1079 53.7 93.7799 53.868C93.4599 54.028 93.1039 54.108 92.7119 54.108ZM101.62 54.072C100.716 54.072 100.024 53.8 99.5438 53.256C99.0718 52.712 98.8358 51.924 98.8358 50.892C98.8358 49.852 99.0758 49.052 99.5558 48.492C100.036 47.932 100.724 47.652 101.62 47.652C102.5 47.652 103.172 47.932 103.636 48.492C104.108 49.044 104.344 49.844 104.344 50.892C104.344 51.932 104.112 52.724 103.648 53.268C103.192 53.804 102.516 54.072 101.62 54.072ZM101.584 53.208C102.168 53.208 102.6 53.02 102.88 52.644C103.16 52.26 103.3 51.668 103.3 50.868C103.3 50.068 103.16 49.476 102.88 49.092C102.6 48.708 102.168 48.516 101.584 48.516C101 48.516 100.572 48.708 100.3 49.092C100.028 49.468 99.8918 50.06 99.8918 50.868C99.8918 51.668 100.028 52.26 100.3 52.644C100.572 53.02 101 53.208 101.584 53.208ZM107.864 54.072C107.256 54.072 106.776 53.9 106.424 53.556C106.08 53.212 105.908 52.736 105.908 52.128V47.964C105.908 47.788 106.068 47.7 106.388 47.7H106.436C106.756 47.7 106.916 47.788 106.916 47.964V52.032C106.916 52.4 107.02 52.688 107.228 52.896C107.444 53.096 107.748 53.196 108.14 53.196C108.412 53.196 108.68 53.12 108.944 52.968C109.216 52.816 109.452 52.612 109.652 52.356V47.964C109.652 47.788 109.812 47.7 110.132 47.7H110.18C110.5 47.7 110.66 47.788 110.66 47.964V52.224C110.66 52.752 110.684 53.132 110.732 53.364C110.78 53.588 110.804 53.712 110.804 53.736C110.804 53.832 110.728 53.904 110.576 53.952C110.424 53.992 110.284 54.012 110.156 54.012C110.044 54.012 109.96 53.952 109.904 53.832C109.856 53.704 109.816 53.572 109.784 53.436C109.76 53.3 109.744 53.212 109.736 53.172C109.48 53.452 109.188 53.672 108.86 53.832C108.532 53.992 108.2 54.072 107.864 54.072ZM113.248 54.024C112.928 54.024 112.768 53.936 112.768 53.76V49.548C112.768 49.02 112.744 48.644 112.696 48.42C112.648 48.188 112.624 48.06 112.624 48.036C112.624 47.94 112.7 47.872 112.852 47.832C113.004 47.784 113.144 47.76 113.271 47.76C113.384 47.76 113.464 47.82 113.512 47.94C113.568 48.052 113.608 48.172 113.632 48.3C113.664 48.428 113.684 48.512 113.692 48.552C114.116 47.952 114.58 47.652 115.084 47.652C115.316 47.652 115.488 47.692 115.6 47.772C115.72 47.844 115.78 47.96 115.78 48.12C115.78 48.256 115.756 48.4 115.708 48.552C115.66 48.696 115.604 48.768 115.54 48.768C115.5 48.768 115.42 48.748 115.3 48.708C115.188 48.66 115.048 48.636 114.88 48.636C114.672 48.636 114.472 48.708 114.28 48.852C114.088 48.988 113.92 49.16 113.776 49.368V53.76C113.776 53.936 113.616 54.024 113.296 54.024H113.248ZM122.409 54.072C121.505 54.072 120.813 53.8 120.333 53.256C119.861 52.712 119.625 51.924 119.625 50.892C119.625 49.852 119.865 49.052 120.345 48.492C120.825 47.932 121.513 47.652 122.409 47.652C123.289 47.652 123.961 47.932 124.425 48.492C124.897 49.044 125.133 49.844 125.133 50.892C125.133 51.932 124.901 52.724 124.437 53.268C123.981 53.804 123.305 54.072 122.409 54.072ZM122.373 53.208C122.957 53.208 123.389 53.02 123.669 52.644C123.949 52.26 124.089 51.668 124.089 50.868C124.089 50.068 123.949 49.476 123.669 49.092C123.389 48.708 122.957 48.516 122.373 48.516C121.789 48.516 121.361 48.708 121.089 49.092C120.817 49.468 120.681 50.06 120.681 50.868C120.681 51.668 120.817 52.26 121.089 52.644C121.361 53.02 121.789 53.208 122.373 53.208ZM128.176 54.024C127.888 54.024 127.728 53.96 127.696 53.832L126.112 48.144C126.072 48.024 126.052 47.944 126.052 47.904C126.052 47.768 126.236 47.7 126.604 47.7C126.892 47.7 127.052 47.764 127.084 47.892L128.092 51.732C128.116 51.804 128.144 51.928 128.176 52.104C128.208 52.272 128.232 52.4 128.248 52.488L128.368 53.112H128.416C128.544 52.4 128.636 51.936 128.692 51.72L129.688 47.904C129.72 47.768 129.876 47.7 130.156 47.7H130.24C130.52 47.7 130.676 47.768 130.708 47.904L131.716 51.72C131.804 52.072 131.868 52.38 131.908 52.644C131.956 52.9 131.988 53.064 132.004 53.136H132.028L132.112 52.632C132.2 52.176 132.26 51.88 132.292 51.744L133.3 47.892C133.332 47.764 133.496 47.7 133.792 47.7C134.112 47.7 134.272 47.768 134.272 47.904C134.272 47.944 134.26 48 134.236 48.072L132.628 53.832C132.596 53.96 132.436 54.024 132.148 54.024H131.788C131.508 54.024 131.352 53.96 131.32 53.832L130.36 50.028C130.336 49.932 130.28 49.616 130.192 49.08H130.168C130.08 49.584 130.024 49.896 130 50.016L129.016 53.832C128.984 53.96 128.824 54.024 128.536 54.024H128.176ZM136.157 54.024C135.837 54.024 135.677 53.936 135.677 53.76V49.548C135.677 49.02 135.653 48.644 135.605 48.42C135.557 48.188 135.533 48.06 135.533 48.036C135.533 47.94 135.609 47.872 135.761 47.832C135.913 47.784 136.053 47.76 136.181 47.76C136.293 47.76 136.373 47.82 136.421 47.94C136.477 48.052 136.517 48.172 136.541 48.3C136.573 48.428 136.593 48.512 136.601 48.552C136.857 48.272 137.149 48.052 137.477 47.892C137.805 47.732 138.137 47.652 138.473 47.652C139.081 47.652 139.557 47.824 139.901 48.168C140.253 48.512 140.429 48.988 140.429 49.596V53.76C140.429 53.936 140.269 54.024 139.949 54.024H139.901C139.581 54.024 139.421 53.936 139.421 53.76V49.692C139.421 49.324 139.313 49.04 139.097 48.84C138.889 48.632 138.589 48.528 138.197 48.528C137.925 48.528 137.653 48.604 137.381 48.756C137.117 48.908 136.885 49.112 136.685 49.368V53.76C136.685 53.936 136.525 54.024 136.205 54.024H136.157ZM27.512 70.496C27.192 70.496 27.032 70.408 27.032 70.232V63.548C27.032 63.02 27.008 62.644 26.96 62.42C26.912 62.188 26.888 62.06 26.888 62.036C26.888 61.94 26.964 61.872 27.116 61.832C27.268 61.784 27.408 61.76 27.536 61.76C27.648 61.76 27.728 61.82 27.776 61.94C27.832 62.052 27.872 62.172 27.896 62.3C27.928 62.428 27.948 62.512 27.956 62.552C28.532 61.952 29.168 61.652 29.864 61.652C30.352 61.652 30.768 61.792 31.112 62.072C31.464 62.344 31.732 62.724 31.916 63.212C32.1 63.692 32.192 64.244 32.192 64.868C32.192 65.548 32.088 66.128 31.88 66.608C31.68 67.088 31.396 67.452 31.028 67.7C30.66 67.948 30.236 68.072 29.756 68.072C29.404 68.072 29.092 68.02 28.82 67.916C28.556 67.812 28.296 67.66 28.04 67.46V70.232C28.04 70.408 27.88 70.496 27.56 70.496H27.512ZM29.528 67.184C30.056 67.184 30.456 66.992 30.728 66.608C31 66.224 31.136 65.672 31.136 64.952C31.136 64.176 31.008 63.58 30.752 63.164C30.496 62.74 30.132 62.528 29.66 62.528C29.388 62.528 29.108 62.6 28.82 62.744C28.54 62.888 28.28 63.092 28.04 63.356V66.644C28.472 67.004 28.968 67.184 29.528 67.184ZM34.4389 68.024C34.1189 68.024 33.9589 67.936 33.9589 67.76V63.548C33.9589 63.02 33.9349 62.644 33.8869 62.42C33.8389 62.188 33.8149 62.06 33.8149 62.036C33.8149 61.94 33.8909 61.872 34.0429 61.832C34.1949 61.784 34.3349 61.76 34.4629 61.76C34.5749 61.76 34.6549 61.82 34.7029 61.94C34.7589 62.052 34.7989 62.172 34.8229 62.3C34.8549 62.428 34.8749 62.512 34.8829 62.552C35.3069 61.952 35.7709 61.652 36.2749 61.652C36.5069 61.652 36.6789 61.692 36.7909 61.772C36.9109 61.844 36.9709 61.96 36.9709 62.12C36.9709 62.256 36.9469 62.4 36.8989 62.552C36.8509 62.696 36.7949 62.768 36.7309 62.768C36.6909 62.768 36.6109 62.748 36.4909 62.708C36.3789 62.66 36.2389 62.636 36.0709 62.636C35.8629 62.636 35.6629 62.708 35.4709 62.852C35.2789 62.988 35.1109 63.16 34.9669 63.368V67.76C34.9669 67.936 34.8069 68.024 34.4869 68.024H34.4389ZM38.8454 68.024C38.5254 68.024 38.3654 67.936 38.3654 67.76V61.964C38.3654 61.788 38.5254 61.7 38.8454 61.7H38.8934C39.2134 61.7 39.3734 61.788 39.3734 61.964V67.76C39.3734 67.936 39.2134 68.024 38.8934 68.024H38.8454ZM38.8694 60.86C38.5174 60.86 38.3414 60.772 38.3414 60.596V59.876C38.3414 59.7 38.5174 59.612 38.8694 59.612C39.2214 59.612 39.3974 59.7 39.3974 59.876V60.596C39.3974 60.772 39.2214 60.86 38.8694 60.86ZM43.8932 68.072C42.9892 68.072 42.2972 67.8 41.8172 67.256C41.3452 66.712 41.1092 65.924 41.1092 64.892C41.1092 63.852 41.3492 63.052 41.8292 62.492C42.3092 61.932 42.9972 61.652 43.8932 61.652C44.7732 61.652 45.4452 61.932 45.9092 62.492C46.3812 63.044 46.6172 63.844 46.6172 64.892C46.6172 65.932 46.3852 66.724 45.9212 67.268C45.4652 67.804 44.7892 68.072 43.8932 68.072ZM43.8572 67.208C44.4412 67.208 44.8732 67.02 45.1532 66.644C45.4332 66.26 45.5732 65.668 45.5732 64.868C45.5732 64.068 45.4332 63.476 45.1532 63.092C44.8732 62.708 44.4412 62.516 43.8572 62.516C43.2732 62.516 42.8452 62.708 42.5732 63.092C42.3012 63.468 42.1652 64.06 42.1652 64.868C42.1652 65.668 42.3012 66.26 42.5732 66.644C42.8452 67.02 43.2732 67.208 43.8572 67.208ZM48.8413 68.024C48.5213 68.024 48.3613 67.936 48.3613 67.76V63.548C48.3613 63.02 48.3373 62.644 48.2893 62.42C48.2413 62.188 48.2173 62.06 48.2173 62.036C48.2173 61.94 48.2933 61.872 48.4453 61.832C48.5973 61.784 48.7373 61.76 48.8652 61.76C48.9773 61.76 49.0573 61.82 49.1053 61.94C49.1613 62.052 49.2013 62.172 49.2253 62.3C49.2573 62.428 49.2773 62.512 49.2853 62.552C49.7093 61.952 50.1733 61.652 50.6773 61.652C50.9093 61.652 51.0813 61.692 51.1933 61.772C51.3133 61.844 51.3733 61.96 51.3733 62.12C51.3733 62.256 51.3493 62.4 51.3013 62.552C51.2533 62.696 51.1973 62.768 51.1333 62.768C51.0933 62.768 51.0133 62.748 50.8933 62.708C50.7813 62.66 50.6413 62.636 50.4733 62.636C50.2653 62.636 50.0653 62.708 49.8733 62.852C49.6813 62.988 49.5133 63.16 49.3693 63.368V67.76C49.3693 67.936 49.2093 68.024 48.8893 68.024H48.8413ZM53.2478 68.024C52.9278 68.024 52.7678 67.936 52.7678 67.76V61.964C52.7678 61.788 52.9278 61.7 53.2478 61.7H53.2958C53.6158 61.7 53.7758 61.788 53.7758 61.964V67.76C53.7758 67.936 53.6158 68.024 53.2958 68.024H53.2478ZM53.2718 60.86C52.9198 60.86 52.7438 60.772 52.7438 60.596V59.876C52.7438 59.7 52.9198 59.612 53.2718 59.612C53.6238 59.612 53.7998 59.7 53.7998 59.876V60.596C53.7998 60.772 53.6238 60.86 53.2718 60.86ZM57.6836 68.072C57.2836 68.072 56.9236 67.952 56.6036 67.712C56.2916 67.464 56.1356 67.032 56.1356 66.416V62.588H55.5356C55.4556 62.588 55.3956 62.56 55.3556 62.504C55.3156 62.448 55.2956 62.356 55.2956 62.228V62.084C55.2956 61.956 55.3156 61.864 55.3556 61.808C55.3956 61.752 55.4556 61.724 55.5356 61.724H56.1356L56.2796 60.464C56.3036 60.288 56.4316 60.2 56.6636 60.2H56.7836C57.0236 60.2 57.1436 60.288 57.1436 60.464V61.724H58.1516C58.2396 61.724 58.2996 61.752 58.3316 61.808C58.3716 61.864 58.3916 61.956 58.3916 62.084V62.228C58.3916 62.356 58.3716 62.448 58.3316 62.504C58.2996 62.56 58.2396 62.588 58.1516 62.588H57.1436V66.32C57.1436 66.656 57.1996 66.888 57.3116 67.016C57.4316 67.144 57.5916 67.208 57.7916 67.208C57.9436 67.208 58.0556 67.2 58.1276 67.184C58.2076 67.16 58.2676 67.148 58.3076 67.148C58.3796 67.148 58.4396 67.224 58.4876 67.376C58.5356 67.52 58.5596 67.632 58.5596 67.712C58.5596 67.952 58.2676 68.072 57.6836 68.072ZM64.0171 61.7C64.3371 61.7 64.4971 61.768 64.4971 61.904C64.4971 61.944 64.4851 62 64.4611 62.072L61.3771 70.244C61.3131 70.412 61.1251 70.496 60.8131 70.496H60.6331C60.3691 70.496 60.2371 70.432 60.2371 70.304C60.2371 70.272 60.2571 70.204 60.2971 70.1L61.3051 67.652L59.2051 62.06C59.1811 61.988 59.1691 61.936 59.1691 61.904C59.1691 61.768 59.3411 61.7 59.6851 61.7H59.7811C60.0611 61.7 60.2211 61.764 60.2611 61.892L61.4851 65.144C61.6131 65.496 61.7411 65.9 61.8691 66.356H61.8931C61.9091 66.3 61.9251 66.248 61.9411 66.2C61.9571 66.144 61.9731 66.092 61.9891 66.044L62.2891 65.144L63.4891 61.892C63.5291 61.764 63.6931 61.7 63.9811 61.7H64.0171Z" fill="white" fill-opacity="0.5"/>
<defs>
<clipPath id="clip0">
<rect width="102" height="105" fill="white" transform="translate(141 70)"/>
</clipPath>
</defs>
</svg>
