<svg width="15" height="15" viewBox="0 0 24 24" fill="none" xmlns="http://www.w3.org/2000/svg">
<g clip-path="url(#clip0)">
<path d="M22.4118 3.56147L19.0368 0.139592C18.9426 0.0439671 18.8137 -0.00618919 18.6796 0.000373306C18.5461 0.00693581 18.4204 0.0725608 18.3365 0.176155C18.3328 0.180842 17.9559 0.641108 17.3756 1.0747C16.979 1.37376 16.1873 1.87481 15.3393 1.87481H15.3271C14.9671 1.87481 14.5889 1.78955 14.2017 1.6208C13.6336 1.37423 13.1498 0.991733 12.8442 0.714233C12.6689 0.555795 12.5379 0.414701 12.4545 0.324233C12.4081 0.273608 12.3282 0.176108 12.3282 0.17517V0.174701C12.2344 0.0636077 12.1006 -0.000142319 11.9581 -0.000142319C11.8156 -0.000142319 11.6799 0.0636077 11.5909 0.174233L11.5877 0.176108C11.584 0.180795 11.207 0.640592 10.6262 1.07465C10.2296 1.37376 9.43726 1.87481 8.58929 1.87481H8.5771C8.2171 1.87481 7.83835 1.78955 7.45163 1.6208C6.88351 1.37423 6.39976 0.991733 6.09413 0.714233C5.91882 0.555326 5.78288 0.414701 5.69945 0.324233C5.65304 0.273608 5.5682 0.174701 5.5682 0.174701C5.48335 0.0697014 5.35773 0.00595143 5.2232 0.000326431C5.0896 -0.00576732 4.95741 0.0476702 4.8646 0.144233L1.58335 3.56611C1.49242 3.6608 1.44648 3.78501 1.45398 3.91626C1.46101 4.04751 1.52054 4.16611 1.62132 4.25001C1.62132 4.25001 1.62179 4.25095 1.62601 4.25423C1.6546 4.27861 2.34413 4.86455 3.01398 5.79267C3.58679 6.58298 4.26929 7.80548 4.26554 9.14044C4.26788 9.62653 4.0982 10.2664 3.77476 10.9906C3.48976 11.6332 3.08148 12.3598 2.56163 13.1497C2.05351 13.9203 1.78538 14.8109 1.78585 15.7245C1.78538 16.1797 1.85195 16.6324 1.98273 17.0707C2.11304 17.5085 2.3057 17.9238 2.55554 18.3049C3.07726 19.1027 3.82445 19.7159 4.71554 20.0777C5.65585 20.4593 6.56527 20.7752 7.41793 21.0166C9.08715 21.4887 10.545 22.459 11.6334 23.8235C11.7229 23.9355 11.8565 23.9998 12 23.9998C12.1434 23.9998 12.277 23.9355 12.3665 23.8235C13.455 22.459 14.9128 21.4887 16.582 21.0166C17.4347 20.7752 18.3436 20.4593 19.2844 20.0777C20.1755 19.7159 20.9227 19.1027 21.4444 18.3049C21.6938 17.9238 21.8869 17.5085 22.0172 17.0707C22.148 16.6324 22.2141 16.1796 22.2141 15.7245C22.2145 14.8109 21.9464 13.9203 21.4388 13.1497C20.9958 12.477 20.6325 11.8484 20.3597 11.2807C20.0522 10.6447 19.8497 10.0574 19.7728 9.5834C19.755 9.47278 19.6978 9.37247 19.6125 9.30028C19.5084 9.21309 19.3692 9.17419 19.2347 9.19622C18.9797 9.23747 18.8063 9.47887 18.8475 9.73434C18.9422 10.3114 19.1606 10.9503 19.515 11.6876C19.8061 12.2923 20.19 12.9579 20.6555 13.6648C21.0614 14.2822 21.2761 14.9942 21.2766 15.7245C21.2752 17.2639 20.3545 18.6317 18.9319 19.2087C18.0225 19.5781 17.1459 19.8828 16.3266 20.1143C14.6616 20.5854 13.1653 21.5164 12 22.8073C10.8342 21.5164 9.3384 20.5854 7.6734 20.1143C6.85402 19.8828 5.97746 19.5781 5.06809 19.2087C3.64543 18.6317 2.72481 17.2639 2.7234 15.7245C2.72387 14.9947 2.93856 14.2822 3.34449 13.6648C3.89246 12.8318 4.32559 12.0603 4.63173 11.3707C4.81501 10.9554 4.95001 10.5838 5.04376 10.2336C5.15016 9.83887 5.2022 9.48122 5.20313 9.14044C5.19985 7.8359 4.69595 6.49294 3.70501 5.14903C3.28501 4.58231 2.86735 4.14122 2.59079 3.87028L5.1961 1.15294C5.4197 1.37747 5.65876 1.58747 5.90626 1.77778C6.29157 2.07309 6.68532 2.30934 7.0772 2.48044C7.58345 2.70028 8.08829 2.81231 8.57813 2.81231C9.06798 2.81231 9.57282 2.70028 10.0791 2.48044C10.627 2.2409 11.1699 1.88044 11.6916 1.40934C11.7806 1.32825 11.8688 1.24434 11.9531 1.15997C12.1749 1.38169 12.4111 1.5893 12.6563 1.77773C13.0416 2.07305 13.4353 2.3093 13.8277 2.48039C14.3334 2.70023 14.8383 2.81226 15.3281 2.81226C15.818 2.81226 16.3228 2.70023 16.8291 2.48039C17.3775 2.24086 17.9198 1.88039 18.4416 1.4093C18.5348 1.32445 18.6267 1.2368 18.7148 1.1482L21.4045 3.87487C21.067 4.20487 20.5659 4.74394 20.0888 5.43862C19.9425 5.6519 19.9969 5.94394 20.2102 6.09019C20.2884 6.14409 20.3798 6.17269 20.4745 6.17269C20.6297 6.17269 20.7741 6.09628 20.8617 5.96878C21.2367 5.42222 21.6328 4.98065 21.8986 4.7069C22.0486 4.55315 22.1733 4.43503 22.2516 4.36284C22.2947 4.32347 22.3786 4.24987 22.3786 4.24987C22.4789 4.16644 22.5398 4.04315 22.5464 3.91284C22.5525 3.78272 22.5037 3.65428 22.4118 3.56147Z" fill="#666666"/>
<path d="M16.1493 10.1358C16.0944 9.96522 15.947 9.8409 15.7696 9.8155L13.4212 9.47912L12.3723 7.38395C12.2928 7.22528 12.1306 7.12506 11.9531 7.12506C11.7756 7.12506 11.6134 7.22528 11.5339 7.38395L10.485 9.47912L8.13663 9.8155C7.95926 9.8409 7.81184 9.96522 7.7569 10.1358C7.70196 10.3064 7.74907 10.4934 7.87831 10.6175L9.57354 12.2464L9.17365 14.5447C9.14313 14.7202 9.21467 14.8978 9.35834 15.0031C9.50201 15.1084 9.69298 15.1232 9.85114 15.0412L11.9531 13.9519L14.0551 15.0412C14.123 15.0764 14.197 15.0938 14.2707 15.0938C14.3685 15.0938 14.4659 15.0632 14.5479 15.0032C14.6915 14.8978 14.7631 14.7202 14.7326 14.5447L14.3327 12.2464L16.0279 10.6176C16.1571 10.4934 16.2042 10.3064 16.1493 10.1358ZM13.5033 11.7431C13.3909 11.8511 13.3396 12.0079 13.3663 12.1615L13.6468 13.7738L12.1688 13.0078C12.1012 12.9728 12.0271 12.9552 11.9531 12.9552C11.8791 12.9552 11.805 12.9728 11.7374 13.0078L10.2594 13.7738L10.5399 12.1615C10.5666 12.0079 10.5153 11.8511 10.4029 11.7431L9.22076 10.6073L10.8608 10.3724C11.0129 10.3506 11.1446 10.2557 11.2135 10.1183L11.9531 8.64086L12.6927 10.1182C12.7616 10.2556 12.8933 10.3506 13.0454 10.3724L14.6854 10.6073L13.5033 11.7431Z" fill="#666666"/>
<path d="M4.96511 15.0237C4.81379 15.0747 4.69886 15.1993 4.66014 15.3541L4.19139 17.2291C4.14292 17.4231 4.22275 17.6264 4.39019 17.7355C4.41348 17.7507 4.97087 18.1117 5.8809 18.4993C5.93964 18.5243 6.00217 18.5368 6.06456 18.5368C6.13618 18.5368 6.20771 18.5204 6.27334 18.4877C6.39615 18.4266 6.48606 18.3148 6.51934 18.1817L6.60095 17.8552C7.52532 18.3499 9.55979 19.2657 11.9531 19.2657C14.3465 19.2657 16.3809 18.3499 17.3053 17.8552L17.3869 18.1817C17.4202 18.3148 17.5101 18.4266 17.6329 18.4877C17.6985 18.5204 17.7701 18.5368 17.8417 18.5368C17.9041 18.5368 17.9666 18.5243 18.0254 18.4993C18.9354 18.1117 19.4928 17.7507 19.5161 17.7355C19.6835 17.6264 19.7633 17.4231 19.7149 17.2291L19.2461 15.3541C19.2075 15.1996 19.0926 15.0755 18.9417 15.0243C18.7909 14.9731 18.6239 15.0023 18.4991 15.1013C18.4954 15.1042 18.2006 15.3363 17.6767 15.6177L17.5642 15.1676C17.5255 15.0131 17.4106 14.889 17.2598 14.8378C17.1089 14.7865 16.942 14.8157 16.8173 14.9147C16.7978 14.9301 14.8453 16.4532 11.9531 16.4532C9.06099 16.4532 7.10842 14.9301 7.08981 14.9153C6.96517 14.8155 6.79834 14.7861 6.64703 14.8372C6.49571 14.8882 6.38082 15.0127 6.34211 15.1676L6.22961 15.6177C5.70573 15.3363 5.41103 15.1044 5.40789 15.102C5.28325 15.0022 5.11637 14.9726 4.96511 15.0237ZM18.4984 16.2287L18.7207 17.1176C18.5801 17.1964 18.3908 17.2974 18.1601 17.4088L17.9422 16.5368C18.1558 16.4281 18.3419 16.3231 18.4984 16.2287ZM11.9531 17.3907C14.2341 17.3907 15.964 16.5587 16.8167 16.0435L17.0385 16.9304C16.3148 17.3339 14.2943 18.3282 11.9531 18.3282C9.61196 18.3282 7.59142 17.3339 6.86781 16.9304L7.08953 16.0435C7.94223 16.5587 9.67215 17.3907 11.9531 17.3907ZM5.74618 17.4088C5.51551 17.2974 5.32614 17.1963 5.18565 17.1176L5.40789 16.2287C5.56445 16.3231 5.75054 16.4281 5.96415 16.5368L5.74618 17.4088Z" fill="#666666"/>
<path d="M17.1094 7.82819C17.1597 7.82819 17.2102 7.82012 17.2592 7.80358C17.4105 7.75253 17.5254 7.62798 17.5641 7.47311L18.0329 5.59811C18.0814 5.40414 18.0015 5.2008 17.834 5.09167C17.7264 5.02159 15.1621 3.37506 11.9531 3.37506C8.74416 3.37506 6.17986 5.02159 6.07229 5.09167C5.90475 5.2008 5.82493 5.40419 5.87339 5.59811L6.34214 7.47311C6.38082 7.62766 6.49566 7.75169 6.6465 7.80297C6.79739 7.8542 6.96427 7.82505 7.08905 7.726C7.10846 7.71062 9.06098 6.18756 11.9531 6.18756C14.8453 6.18756 16.7978 7.71062 16.8164 7.72539C16.9007 7.79289 17.0044 7.82819 17.1094 7.82819ZM7.08952 6.59725L6.8678 5.71037C7.59141 5.30678 9.61195 4.31256 11.9531 4.31256C14.2943 4.31256 16.3148 5.30678 17.0384 5.71033L16.8167 6.5972C15.9641 6.082 14.2341 5.25006 11.9531 5.25006C9.67214 5.25006 7.94222 6.082 7.08952 6.59725Z" fill="#666666"/>
<path d="M19.4778 8.04941C19.7367 8.04941 19.9466 7.83954 19.9466 7.58066C19.9466 7.32177 19.7367 7.11191 19.4778 7.11191C19.219 7.11191 19.0091 7.32177 19.0091 7.58066C19.0091 7.83954 19.219 8.04941 19.4778 8.04941Z" fill="#666666"/>
</g>
<defs>
<clipPath id="clip0">
<rect width="24" height="24" fill="white"/>
</clipPath>
</defs>
</svg>
