<svg width="15" height="15" viewBox="0 0 24 24" fill="none" xmlns="http://www.w3.org/2000/svg">
<path d="M11.25 9H12.75V22.5H11.25V9Z" fill="#666666"/>
<path d="M8.49753 13.665C7.94634 13.1725 7.50536 12.5693 7.20343 11.8946C6.90149 11.2199 6.74542 10.4891 6.74542 9.75001C6.74542 9.01087 6.90149 8.28007 7.20343 7.60541C7.50536 6.93076 7.94634 6.32747 8.49753 5.83501L9.50253 6.95251C9.10847 7.30428 8.79318 7.73533 8.5773 8.21742C8.36142 8.69952 8.24982 9.22178 8.24982 9.75001C8.24982 10.2782 8.36142 10.8005 8.5773 11.2826C8.79318 11.7647 9.10847 12.1957 9.50253 12.5475L8.49753 13.665Z" fill="#666666"/>
<path d="M15.5025 13.665L14.4975 12.5475C14.8916 12.1957 15.2068 11.7647 15.4227 11.2826C15.6386 10.8005 15.7502 10.2782 15.7502 9.75001C15.7502 9.22178 15.6386 8.69952 15.4227 8.21742C15.2068 7.73533 14.8916 7.30428 14.4975 6.95251L15.5025 5.83501C16.0537 6.32747 16.4947 6.93076 16.7966 7.60541C17.0985 8.28007 17.2546 9.01087 17.2546 9.75001C17.2546 10.4891 17.0985 11.2199 16.7966 11.8946C16.4947 12.5693 16.0537 13.1725 15.5025 13.665Z" fill="#666666"/>
<path d="M6.3 16.35C5.27538 15.5815 4.44375 14.5851 3.87098 13.4395C3.2982 12.294 3 11.0308 3 9.75001C3 8.46924 3.2982 7.20605 3.87098 6.0605C4.44375 4.91494 5.27538 3.91847 6.3 3.15001L7.2 4.35001C6.36168 4.97875 5.68125 5.79404 5.21262 6.73132C4.74398 7.66859 4.5 8.70211 4.5 9.75001C4.5 10.7979 4.74398 11.8314 5.21262 12.7687C5.68125 13.706 6.36168 14.5213 7.2 15.15L6.3 16.35Z" fill="#666666"/>
<path d="M17.7 16.35L16.8 15.15C17.6383 14.5213 18.3187 13.706 18.7874 12.7687C19.256 11.8314 19.5 10.7979 19.5 9.75001C19.5 8.70211 19.256 7.66859 18.7874 6.73132C18.3187 5.79404 17.6383 4.97875 16.8 4.35001L17.7 3.15001C18.7246 3.91847 19.5562 4.91494 20.129 6.0605C20.7018 7.20605 21 8.46924 21 9.75001C21 11.0308 20.7018 12.294 20.129 13.4395C19.5562 14.5851 18.7246 15.5815 17.7 16.35Z" fill="#666666"/>
</svg>
